<svg xmlns="http://www.w3.org/2000/svg" xmlns:xlink="http://www.w3.org/1999/xlink" width="300" zoomAndPan="magnify" viewBox="0 0 224.87999 225" height="300" preserveAspectRatio="xMidYMid meet" version="1.0"><defs><clipPath id="924613bb4f"><path d="M 0.289062 0.933594 L 136.628906 0.933594 L 136.628906 30.488281 L 0.289062 30.488281 Z M 0.289062 0.933594 " clip-rule="nonzero"/></clipPath><clipPath id="d43fdb4868"><path d="M 121.8125 0.933594 C 129.976562 0.933594 136.589844 7.550781 136.589844 15.710938 C 136.589844 23.871094 129.976562 30.488281 121.8125 30.488281 L 15.066406 30.488281 C 6.90625 30.488281 0.289062 23.871094 0.289062 15.710938 C 0.289062 7.550781 6.90625 0.933594 15.066406 0.933594 Z M 121.8125 0.933594 " clip-rule="nonzero"/></clipPath><clipPath id="476603a9ef"><path d="M 0.289062 0.933594 L 136.625 0.933594 L 136.625 30.488281 L 0.289062 30.488281 Z M 0.289062 0.933594 " clip-rule="nonzero"/></clipPath><clipPath id="ee4b3e5b61"><path d="M 121.8125 0.933594 C 129.976562 0.933594 136.589844 7.550781 136.589844 15.710938 C 136.589844 23.871094 129.976562 30.488281 121.8125 30.488281 L 15.066406 30.488281 C 6.90625 30.488281 0.289062 23.871094 0.289062 15.710938 C 0.289062 7.550781 6.90625 0.933594 15.066406 0.933594 Z M 121.8125 0.933594 " clip-rule="nonzero"/></clipPath><clipPath id="c8a5178659"><rect x="0" width="137" y="0" height="31"/></clipPath><clipPath id="1a9bf3a9f7"><path d="M 0.289062 72.113281 L 136.628906 72.113281 L 136.628906 101.664062 L 0.289062 101.664062 Z M 0.289062 72.113281 " clip-rule="nonzero"/></clipPath><clipPath id="e18e57c5fd"><path d="M 121.8125 72.113281 C 129.976562 72.113281 136.589844 78.726562 136.589844 86.886719 C 136.589844 95.050781 129.976562 101.664062 121.8125 101.664062 L 15.066406 101.664062 C 6.90625 101.664062 0.289062 95.050781 0.289062 86.886719 C 0.289062 78.726562 6.90625 72.113281 15.066406 72.113281 Z M 121.8125 72.113281 " clip-rule="nonzero"/></clipPath><clipPath id="155fabe3eb"><path d="M 0.289062 0.113281 L 136.625 0.113281 L 136.625 29.664062 L 0.289062 29.664062 Z M 0.289062 0.113281 " clip-rule="nonzero"/></clipPath><clipPath id="86072af138"><path d="M 121.8125 0.113281 C 129.976562 0.113281 136.589844 6.726562 136.589844 14.886719 C 136.589844 23.050781 129.976562 29.664062 121.8125 29.664062 L 15.066406 29.664062 C 6.90625 29.664062 0.289062 23.050781 0.289062 14.886719 C 0.289062 6.726562 6.90625 0.113281 15.066406 0.113281 Z M 121.8125 0.113281 " clip-rule="nonzero"/></clipPath><clipPath id="4c0fee2095"><rect x="0" width="137" y="0" height="30"/></clipPath><clipPath id="e90f464574"><path d="M 0.289062 144.1875 L 136.632812 144.1875 L 136.632812 172.066406 L 0.289062 172.066406 Z M 0.289062 144.1875 " clip-rule="nonzero"/></clipPath><clipPath id="088da8bd74"><path d="M 122.652344 144.1875 C 130.351562 144.1875 136.589844 150.429688 136.589844 158.128906 C 136.589844 165.824219 130.351562 172.066406 122.652344 172.066406 L 14.230469 172.066406 C 6.53125 172.066406 0.289062 165.824219 0.289062 158.128906 C 0.289062 150.429688 6.53125 144.1875 14.230469 144.1875 Z M 122.652344 144.1875 " clip-rule="nonzero"/></clipPath><clipPath id="be4bdc1a6d"><path d="M 0.289062 0.1875 L 136.625 0.1875 L 136.625 28.066406 L 0.289062 28.066406 Z M 0.289062 0.1875 " clip-rule="nonzero"/></clipPath><clipPath id="5c74eb9d87"><path d="M 122.652344 0.1875 C 130.351562 0.1875 136.589844 6.429688 136.589844 14.128906 C 136.589844 21.824219 130.351562 28.066406 122.652344 28.066406 L 14.230469 28.066406 C 6.53125 28.066406 0.289062 21.824219 0.289062 14.128906 C 0.289062 6.429688 6.53125 0.1875 14.230469 0.1875 Z M 122.652344 0.1875 " clip-rule="nonzero"/></clipPath><clipPath id="027fb48c25"><rect x="0" width="137" y="0" height="29"/></clipPath><clipPath id="7ab3627334"><rect x="0" width="137" y="0" height="173"/></clipPath></defs><g transform="matrix(1, 0, 0, 1, 44, 26)"><g clip-path="url(#7ab3627334)"><g clip-path="url(#924613bb4f)"><g clip-path="url(#d43fdb4868)"><g transform="matrix(1, 0, 0, 1, 0.000000000000007105, 0)"><g clip-path="url(#c8a5178659)"><g clip-path="url(#476603a9ef)"><g clip-path="url(#ee4b3e5b61)"><path fill="#a42d22" d="M 0.289062 0.933594 L 136.628906 0.933594 L 136.628906 30.488281 L 0.289062 30.488281 Z M 0.289062 0.933594 " fill-opacity="1" fill-rule="nonzero"/></g></g></g></g></g></g><g clip-path="url(#1a9bf3a9f7)"><g clip-path="url(#e18e57c5fd)"><g transform="matrix(1, 0, 0, 1, 0.000000000000007105, 72)"><g clip-path="url(#4c0fee2095)"><g clip-path="url(#155fabe3eb)"><g clip-path="url(#86072af138)"><path fill="#a42d22" d="M 0.289062 0.113281 L 136.628906 0.113281 L 136.628906 29.664062 L 0.289062 29.664062 Z M 0.289062 0.113281 " fill-opacity="1" fill-rule="nonzero"/></g></g></g></g></g></g><g clip-path="url(#e90f464574)"><g clip-path="url(#088da8bd74)"><g transform="matrix(1, 0, 0, 1, 0.000000000000007105, 144)"><g clip-path="url(#027fb48c25)"><g clip-path="url(#be4bdc1a6d)"><g clip-path="url(#5c74eb9d87)"><path fill="#a42d22" d="M 0.289062 0.1875 L 136.632812 0.1875 L 136.632812 28.066406 L 0.289062 28.066406 Z M 0.289062 0.1875 " fill-opacity="1" fill-rule="nonzero"/></g></g></g></g></g></g></g></g></svg>