<svg xmlns="http://www.w3.org/2000/svg" xmlns:xlink="http://www.w3.org/1999/xlink" width="1366" zoomAndPan="magnify" viewBox="0 0 1024.5 445.5" height="594" preserveAspectRatio="xMidYMid meet" version="1.0"><defs><g/><clipPath id="1648f7e9b2"><path d="M 0.0507812 3 L 678 3 L 678 299.824219 L 0.0507812 299.824219 Z M 0.0507812 3 " clip-rule="nonzero"/></clipPath><clipPath id="4473edb1ee"><rect x="0" width="678" y="0" height="297"/></clipPath><clipPath id="2aa898832a"><path d="M 635 0.640625 L 917.023438 0.640625 L 917.023438 298 L 635 298 Z M 635 0.640625 " clip-rule="nonzero"/></clipPath><clipPath id="ac633856b9"><rect x="0" width="283" y="0" height="298"/></clipPath><clipPath id="74a3be789f"><path d="M 275.039062 18.140625 L 438.46875 18.140625 L 438.46875 53.566406 L 275.039062 53.566406 Z M 275.039062 18.140625 " clip-rule="nonzero"/></clipPath><clipPath id="9ef7d77aea"><path d="M 420.710938 18.140625 C 430.492188 18.140625 438.421875 26.070312 438.421875 35.855469 C 438.421875 45.636719 430.492188 53.566406 420.710938 53.566406 L 292.75 53.566406 C 282.96875 53.566406 275.039062 45.636719 275.039062 35.855469 C 275.039062 26.070312 282.96875 18.140625 292.75 18.140625 Z M 420.710938 18.140625 " clip-rule="nonzero"/></clipPath><clipPath id="0589d901e1"><path d="M 0.0390625 0.140625 L 163.46875 0.140625 L 163.46875 35.566406 L 0.0390625 35.566406 Z M 0.0390625 0.140625 " clip-rule="nonzero"/></clipPath><clipPath id="93dad2525a"><path d="M 145.710938 0.140625 C 155.492188 0.140625 163.421875 8.070312 163.421875 17.855469 C 163.421875 27.636719 155.492188 35.566406 145.710938 35.566406 L 17.75 35.566406 C 7.96875 35.566406 0.0390625 27.636719 0.0390625 17.855469 C 0.0390625 8.070312 7.96875 0.140625 17.75 0.140625 Z M 145.710938 0.140625 " clip-rule="nonzero"/></clipPath><clipPath id="8a358acf48"><rect x="0" width="164" y="0" height="36"/></clipPath><clipPath id="19c53be2fd"><path d="M 275.039062 103.464844 L 438.46875 103.464844 L 438.46875 138.890625 L 275.039062 138.890625 Z M 275.039062 103.464844 " clip-rule="nonzero"/></clipPath><clipPath id="d1e6d0be17"><path d="M 420.710938 103.464844 C 430.492188 103.464844 438.421875 111.394531 438.421875 121.175781 C 438.421875 130.957031 430.492188 138.890625 420.710938 138.890625 L 292.75 138.890625 C 282.96875 138.890625 275.039062 130.957031 275.039062 121.175781 C 275.039062 111.394531 282.96875 103.464844 292.75 103.464844 Z M 420.710938 103.464844 " clip-rule="nonzero"/></clipPath><clipPath id="04bd84ed78"><path d="M 0.0390625 0.464844 L 163.46875 0.464844 L 163.46875 35.890625 L 0.0390625 35.890625 Z M 0.0390625 0.464844 " clip-rule="nonzero"/></clipPath><clipPath id="286a676280"><path d="M 145.710938 0.464844 C 155.492188 0.464844 163.421875 8.394531 163.421875 18.175781 C 163.421875 27.957031 155.492188 35.890625 145.710938 35.890625 L 17.75 35.890625 C 7.96875 35.890625 0.0390625 27.957031 0.0390625 18.175781 C 0.0390625 8.394531 7.96875 0.464844 17.75 0.464844 Z M 145.710938 0.464844 " clip-rule="nonzero"/></clipPath><clipPath id="caae8fbf61"><rect x="0" width="164" y="0" height="36"/></clipPath><clipPath id="e2a4dea886"><path d="M 275.039062 189.859375 L 438.476562 189.859375 L 438.476562 223.28125 L 275.039062 223.28125 Z M 275.039062 189.859375 " clip-rule="nonzero"/></clipPath><clipPath id="e9de52ca69"><path d="M 421.714844 189.859375 C 430.941406 189.859375 438.421875 197.34375 438.421875 206.570312 C 438.421875 215.796875 430.941406 223.28125 421.714844 223.28125 L 291.746094 223.28125 C 282.519531 223.28125 275.039062 215.796875 275.039062 206.570312 C 275.039062 197.34375 282.519531 189.859375 291.746094 189.859375 Z M 421.714844 189.859375 " clip-rule="nonzero"/></clipPath><clipPath id="0cc150b219"><path d="M 0.0390625 0.859375 L 163.476562 0.859375 L 163.476562 34.28125 L 0.0390625 34.28125 Z M 0.0390625 0.859375 " clip-rule="nonzero"/></clipPath><clipPath id="33c7a55b6d"><path d="M 146.714844 0.859375 C 155.941406 0.859375 163.421875 8.34375 163.421875 17.570312 C 163.421875 26.796875 155.941406 34.28125 146.714844 34.28125 L 16.746094 34.28125 C 7.519531 34.28125 0.0390625 26.796875 0.0390625 17.570312 C 0.0390625 8.34375 7.519531 0.859375 16.746094 0.859375 Z M 146.714844 0.859375 " clip-rule="nonzero"/></clipPath><clipPath id="35c3178779"><rect x="0" width="164" y="0" height="35"/></clipPath><clipPath id="40790ca188"><rect x="0" width="918" y="0" height="300"/></clipPath></defs><g transform="matrix(1, 0, 0, 1, 65, 107)"><g clip-path="url(#40790ca188)"><g clip-path="url(#1648f7e9b2)"><g transform="matrix(1, 0, 0, 1, 0, 3)"><g clip-path="url(#4473edb1ee)"><g fill="#000000" fill-opacity="1"><g transform="translate(2.064497, 219.31459)"><g><path d="M 17.878906 -207.523438 L 50.417969 -207.523438 L 48.902344 -185.59375 C 48.566406 -180.457031 48.355469 -175.488281 48.273438 -170.6875 C 48.1875 -165.851562 48.144531 -160.292969 48.144531 -154.011719 L 48.144531 -50.316406 C 48.144531 -44.203125 48.1875 -38.6875 48.273438 -33.769531 C 48.355469 -28.882812 48.566406 -23.867188 48.90625 -18.726562 L 50.417969 3.191406 L 14.457031 3.191406 L 15.972656 -18.738281 C 16.308594 -23.871094 16.519531 -28.882812 16.601562 -33.769531 C 16.6875 -38.6875 16.730469 -44.203125 16.730469 -50.316406 L 16.730469 -154.011719 C 16.730469 -160.292969 16.6875 -165.851562 16.601562 -170.6875 C 16.519531 -175.488281 16.308594 -180.460938 15.96875 -185.601562 L 14.457031 -207.523438 Z M 17.878906 -201.136719 L 17.878906 -204.328125 L 21.0625 -204.550781 L 22.339844 -186.019531 C 22.6875 -180.777344 22.902344 -175.703125 22.988281 -170.796875 C 23.070312 -165.925781 23.113281 -160.332031 23.113281 -154.011719 L 23.113281 -50.316406 C 23.113281 -44.167969 23.070312 -38.617188 22.988281 -33.660156 C 22.902344 -28.671875 22.683594 -23.550781 22.339844 -18.296875 L 21.0625 0.21875 L 17.878906 0 L 17.878906 -3.191406 L 46.996094 -3.191406 L 46.996094 0 L 43.8125 0.21875 L 42.53125 -18.308594 C 42.1875 -23.554688 41.972656 -28.671875 41.886719 -33.660156 C 41.800781 -38.617188 41.761719 -44.167969 41.761719 -50.316406 L 41.761719 -154.011719 C 41.761719 -160.332031 41.800781 -165.925781 41.886719 -170.796875 C 41.972656 -175.703125 42.1875 -180.78125 42.535156 -186.03125 L 43.8125 -204.550781 L 46.996094 -204.328125 L 46.996094 -201.136719 Z M 17.878906 -201.136719 "/></g></g></g><g fill="#000000" fill-opacity="1"><g transform="translate(86.85791, 219.31459)"><g><path d="M 100.382812 -118.851562 C 111.101562 -117.09375 120.992188 -113.882812 130.058594 -109.21875 C 139.316406 -104.453125 146.78125 -97.84375 152.449219 -89.382812 C 158.175781 -80.84375 161.035156 -69.949219 161.035156 -56.703125 C 161.035156 -45.230469 158.765625 -35.585938 154.21875 -27.769531 C 149.675781 -19.953125 143.453125 -13.777344 135.554688 -9.234375 C 127.839844 -4.804688 119 -1.617188 109.03125 0.324219 C 99.210938 2.238281 88.917969 3.191406 78.15625 3.191406 L 14.457031 3.191406 L 15.972656 -18.738281 C 16.308594 -23.871094 16.519531 -28.882812 16.601562 -33.769531 C 16.6875 -38.6875 16.730469 -44.203125 16.730469 -50.316406 L 16.730469 -154.011719 C 16.730469 -160.292969 16.6875 -165.851562 16.601562 -170.6875 C 16.519531 -175.488281 16.308594 -180.460938 15.96875 -185.601562 L 14.457031 -207.523438 L 74.835938 -207.523438 C 83.152344 -207.523438 91.46875 -206.957031 99.785156 -205.832031 C 108.269531 -204.683594 116.015625 -202.511719 123.027344 -199.316406 C 130.296875 -196.003906 136.144531 -191.074219 140.566406 -184.535156 C 145.019531 -177.949219 147.246094 -169.394531 147.246094 -158.867188 C 147.246094 -146.085938 143.457031 -135.769531 135.878906 -127.914062 C 128.398438 -120.164062 116.554688 -115.039062 100.351562 -112.546875 L 99.867188 -115.703125 Z M 99.347656 -112.550781 L 99.378906 -118.855469 C 114.164062 -121.132812 124.800781 -125.628906 131.28125 -132.347656 C 137.667969 -138.96875 140.859375 -147.804688 140.859375 -158.867188 C 140.859375 -168.089844 139 -175.453125 135.277344 -180.957031 C 131.527344 -186.507812 126.558594 -190.691406 120.378906 -193.507812 C 113.941406 -196.441406 106.789062 -198.441406 98.925781 -199.503906 C 90.894531 -200.59375 82.867188 -201.136719 74.835938 -201.136719 L 17.878906 -201.136719 L 17.878906 -204.328125 L 21.0625 -204.550781 L 22.339844 -186.019531 C 22.6875 -180.777344 22.902344 -175.703125 22.988281 -170.796875 C 23.070312 -165.925781 23.113281 -160.332031 23.113281 -154.011719 L 23.113281 -50.316406 C 23.113281 -44.167969 23.070312 -38.617188 22.988281 -33.660156 C 22.902344 -28.671875 22.683594 -23.550781 22.339844 -18.296875 L 21.0625 0.21875 L 17.878906 0 L 17.878906 -3.191406 L 78.15625 -3.191406 C 88.507812 -3.191406 98.394531 -4.109375 107.8125 -5.941406 C 117.085938 -7.75 125.273438 -10.691406 132.371094 -14.773438 C 139.285156 -18.746094 144.726562 -24.148438 148.699219 -30.976562 C 152.667969 -37.804688 154.652344 -46.378906 154.652344 -56.703125 C 154.652344 -68.65625 152.148438 -78.363281 147.148438 -85.828125 C 142.089844 -93.375 135.417969 -99.277344 127.140625 -103.539062 C 118.667969 -107.898438 109.40625 -110.902344 99.347656 -112.550781 Z M 48.144531 -200.242188 L 48.144531 -118 L 44.953125 -118 L 44.953125 -121.191406 L 68.960938 -121.191406 C 86.144531 -121.191406 98.085938 -124.464844 104.785156 -131.011719 C 111.46875 -137.535156 114.808594 -146.820312 114.808594 -158.867188 C 114.808594 -166.617188 113.34375 -172.921875 110.414062 -177.777344 C 107.460938 -182.675781 103.582031 -186.519531 98.773438 -189.308594 C 93.800781 -192.195312 88.507812 -194.203125 82.894531 -195.324219 C 77.140625 -196.476562 71.558594 -197.050781 66.152344 -197.050781 L 44.953125 -197.050781 L 44.953125 -200.242188 Z M 41.761719 -203.433594 L 66.152344 -203.433594 C 71.980469 -203.433594 77.980469 -202.820312 84.144531 -201.585938 C 90.453125 -200.324219 96.394531 -198.074219 101.980469 -194.832031 C 107.730469 -191.492188 112.363281 -186.90625 115.882812 -181.074219 C 119.421875 -175.203125 121.191406 -167.800781 121.191406 -158.867188 C 121.191406 -145.027344 117.210938 -134.222656 109.25 -126.445312 C 101.304688 -118.6875 87.878906 -114.808594 68.960938 -114.808594 L 41.761719 -114.808594 Z M 68.707031 -7.277344 C 79.226562 -7.277344 88.945312 -8.917969 97.871094 -12.191406 C 106.558594 -15.378906 113.605469 -20.59375 119.019531 -27.835938 C 124.382812 -35.015625 127.066406 -44.722656 127.066406 -56.957031 C 127.066406 -68.003906 125.191406 -77.035156 121.441406 -84.058594 C 117.691406 -91.078125 112.976562 -96.484375 107.289062 -100.273438 C 101.476562 -104.152344 95.386719 -106.855469 89.03125 -108.382812 C 82.550781 -109.941406 76.710938 -110.722656 71.515625 -110.722656 L 44.953125 -110.722656 L 44.953125 -113.914062 L 48.144531 -113.914062 L 48.144531 -4.085938 L 44.953125 -4.085938 L 44.953125 -7.277344 Z M 68.707031 -0.894531 L 41.761719 -0.894531 L 41.761719 -117.105469 L 71.515625 -117.105469 C 77.214844 -117.105469 83.550781 -116.269531 90.523438 -114.589844 C 97.617188 -112.886719 104.386719 -109.882812 110.832031 -105.585938 C 117.40625 -101.203125 122.820312 -95.03125 127.074219 -87.066406 C 131.328125 -79.105469 133.453125 -69.066406 133.453125 -56.957031 C 133.453125 -43.308594 130.347656 -32.328125 124.132812 -24.011719 C 117.964844 -15.757812 109.945312 -9.820312 100.070312 -6.199219 C 90.4375 -2.660156 79.980469 -0.894531 68.707031 -0.894531 Z M 68.707031 -0.894531 "/></g></g></g><g fill="#000000" fill-opacity="1"><g transform="translate(277.391006, 219.31459)"><g/></g></g><g fill="#000000" fill-opacity="1"><g transform="translate(370.357168, 219.31459)"><g/></g></g><g fill="#000000" fill-opacity="1"><g transform="translate(463.344103, 219.31459)"><g><path d="M 139.109375 -49.683594 C 143.453125 -38.496094 147.730469 -29.761719 151.9375 -23.488281 C 155.960938 -17.496094 160.519531 -13.265625 165.621094 -10.789062 C 170.800781 -8.28125 177.0625 -7.023438 184.40625 -7.023438 L 187.601562 -7.023438 L 187.601562 3.191406 L 184.40625 3.191406 C 170.136719 3.191406 158.125 1.742188 148.378906 -1.152344 C 138.347656 -4.136719 130.105469 -9.261719 123.65625 -16.527344 C 117.339844 -23.644531 111.980469 -33.359375 107.585938 -45.667969 C 102.933594 -58.792969 98.035156 -68.625 92.886719 -75.160156 C 87.902344 -81.488281 82.375 -85.746094 76.3125 -87.921875 C 70.019531 -90.179688 62.632812 -91.308594 54.148438 -91.308594 L 44.953125 -91.308594 L 44.953125 -94.503906 L 48.144531 -94.503906 L 48.144531 -50.316406 C 48.144531 -44.203125 48.1875 -38.6875 48.273438 -33.769531 C 48.355469 -28.882812 48.566406 -23.867188 48.90625 -18.726562 L 50.417969 3.191406 L 14.457031 3.191406 L 15.972656 -18.738281 C 16.308594 -23.871094 16.519531 -28.882812 16.601562 -33.769531 C 16.6875 -38.6875 16.730469 -44.203125 16.730469 -50.316406 L 16.730469 -154.011719 C 16.730469 -160.292969 16.6875 -165.851562 16.601562 -170.6875 C 16.519531 -175.488281 16.308594 -180.460938 15.96875 -185.601562 L 14.457031 -207.523438 L 65.128906 -207.523438 C 76.707031 -207.523438 87.683594 -206.699219 98.066406 -205.054688 C 108.613281 -203.386719 117.992188 -200.476562 126.207031 -196.324219 C 134.652344 -192.054688 141.285156 -186.097656 146.113281 -178.449219 C 150.953125 -170.777344 153.375 -161.097656 153.375 -149.414062 C 153.375 -135.738281 150.167969 -124.820312 143.753906 -116.664062 C 137.410156 -108.601562 128.882812 -102.679688 118.167969 -98.898438 C 107.777344 -95.230469 96.144531 -92.875 83.265625 -91.832031 L 83.007812 -95.011719 L 83.589844 -98.152344 C 95.144531 -96.019531 105.679688 -91.398438 115.1875 -84.289062 C 124.777344 -77.121094 132.746094 -65.59375 139.097656 -49.714844 Z M 133.171875 -47.34375 C 127.261719 -62.113281 119.992188 -72.722656 111.363281 -79.175781 C 102.652344 -85.6875 93.007812 -89.921875 82.429688 -91.875 L 82.75 -98.195312 C 95.074219 -99.195312 106.171875 -101.4375 116.042969 -104.917969 C 125.59375 -108.289062 133.15625 -113.519531 138.734375 -120.613281 C 144.238281 -127.609375 146.988281 -137.210938 146.988281 -149.414062 C 146.988281 -159.867188 144.898438 -168.410156 140.714844 -175.042969 C 136.515625 -181.695312 130.71875 -186.890625 123.328125 -190.625 C 115.707031 -194.476562 106.953125 -197.183594 97.066406 -198.75 C 87.015625 -200.339844 76.371094 -201.136719 65.128906 -201.136719 L 17.878906 -201.136719 L 17.878906 -204.328125 L 21.0625 -204.550781 L 22.339844 -186.019531 C 22.6875 -180.777344 22.902344 -175.703125 22.988281 -170.796875 C 23.070312 -165.925781 23.113281 -160.332031 23.113281 -154.011719 L 23.113281 -50.316406 C 23.113281 -44.167969 23.070312 -38.617188 22.988281 -33.660156 C 22.902344 -28.671875 22.683594 -23.550781 22.339844 -18.296875 L 21.0625 0.21875 L 17.878906 0 L 17.878906 -3.191406 L 46.996094 -3.191406 L 46.996094 0 L 43.8125 0.21875 L 42.53125 -18.308594 C 42.1875 -23.554688 41.972656 -28.671875 41.886719 -33.660156 C 41.800781 -38.617188 41.761719 -44.167969 41.761719 -50.316406 L 41.761719 -97.695312 L 54.148438 -97.695312 C 63.371094 -97.695312 71.480469 -96.441406 78.46875 -93.929688 C 85.683594 -91.339844 92.164062 -86.402344 97.90625 -79.109375 C 103.484375 -72.023438 108.714844 -61.589844 113.601562 -47.8125 C 117.71875 -36.285156 122.664062 -27.265625 128.433594 -20.765625 C 134.074219 -14.40625 141.328125 -9.910156 150.199219 -7.273438 C 159.351562 -4.554688 170.753906 -3.191406 184.40625 -3.191406 L 184.40625 0 L 181.214844 0 L 181.214844 -3.832031 L 184.40625 -3.832031 L 184.40625 -0.636719 C 176.085938 -0.636719 168.894531 -2.105469 162.835938 -5.046875 C 156.699219 -8.019531 151.300781 -12.984375 146.636719 -19.929688 C 142.164062 -26.597656 137.671875 -35.746094 133.15625 -47.375 Z M 44.953125 -101.78125 L 64.875 -101.78125 C 72.136719 -101.78125 79.191406 -102.523438 86.035156 -104.007812 C 92.707031 -105.453125 98.6875 -107.9375 103.96875 -111.460938 C 109.125 -114.898438 113.234375 -119.644531 116.300781 -125.699219 C 119.390625 -131.800781 120.9375 -139.707031 120.9375 -149.414062 C 120.9375 -159.125 119.390625 -167.027344 116.300781 -173.132812 C 113.234375 -179.1875 109.125 -183.933594 103.96875 -187.371094 C 98.6875 -190.890625 92.707031 -193.375 86.035156 -194.824219 C 79.191406 -196.308594 72.136719 -197.050781 64.875 -197.050781 L 44.953125 -197.050781 L 44.953125 -200.242188 L 48.144531 -200.242188 L 48.144531 -98.589844 L 44.953125 -98.589844 Z M 41.761719 -95.394531 L 41.761719 -203.433594 L 64.875 -203.433594 C 72.59375 -203.433594 80.097656 -202.644531 87.390625 -201.0625 C 94.847656 -199.445312 101.558594 -196.652344 107.511719 -192.683594 C 113.597656 -188.625 118.425781 -183.070312 121.996094 -176.015625 C 125.546875 -169.007812 127.324219 -160.140625 127.324219 -149.414062 C 127.324219 -138.691406 125.546875 -129.824219 121.996094 -122.816406 C 118.425781 -115.761719 113.597656 -110.207031 107.511719 -106.148438 C 101.558594 -102.179688 94.847656 -99.386719 87.390625 -97.765625 C 80.097656 -96.1875 72.59375 -95.394531 64.875 -95.394531 Z M 41.761719 -95.394531 "/></g></g></g><g fill="#000000" fill-opacity="1"><g transform="translate(2.064497, 219.31459)"><g><path d="M 17.875 -204.328125 L 47 -204.328125 C 46.488281 -197.171875 46.0625 -190.992188 45.71875 -185.796875 C 45.375 -180.609375 45.160156 -175.585938 45.078125 -170.734375 C 44.992188 -165.878906 44.953125 -160.304688 44.953125 -154.015625 L 44.953125 -50.3125 C 44.953125 -44.1875 44.992188 -38.65625 45.078125 -33.71875 C 45.160156 -28.78125 45.375 -23.710938 45.71875 -18.515625 C 46.0625 -13.328125 46.488281 -7.15625 47 0 L 17.875 0 C 18.382812 -7.15625 18.8125 -13.328125 19.15625 -18.515625 C 19.5 -23.710938 19.710938 -28.78125 19.796875 -33.71875 C 19.878906 -38.65625 19.921875 -44.1875 19.921875 -50.3125 L 19.921875 -154.015625 C 19.921875 -160.304688 19.878906 -165.878906 19.796875 -170.734375 C 19.710938 -175.585938 19.5 -180.609375 19.15625 -185.796875 C 18.8125 -190.992188 18.382812 -197.171875 17.875 -204.328125 Z M 17.875 -204.328125 "/></g></g></g><g fill="#000000" fill-opacity="1"><g transform="translate(86.85791, 219.31459)"><g><path d="M 99.859375 -115.703125 C 110.242188 -113.992188 119.820312 -110.882812 128.59375 -106.375 C 137.363281 -101.863281 144.429688 -95.601562 149.796875 -87.59375 C 155.160156 -79.59375 157.84375 -69.296875 157.84375 -56.703125 C 157.84375 -45.804688 155.710938 -36.695312 151.453125 -29.375 C 147.203125 -22.050781 141.367188 -16.257812 133.953125 -12 C 126.546875 -7.75 118.03125 -4.6875 108.40625 -2.8125 C 98.789062 -0.9375 88.707031 0 78.15625 0 L 17.875 0 C 18.382812 -7.15625 18.8125 -13.328125 19.15625 -18.515625 C 19.5 -23.710938 19.710938 -28.78125 19.796875 -33.71875 C 19.878906 -38.65625 19.921875 -44.1875 19.921875 -50.3125 L 19.921875 -154.015625 C 19.921875 -160.304688 19.878906 -165.878906 19.796875 -170.734375 C 19.710938 -175.585938 19.5 -180.609375 19.15625 -185.796875 C 18.8125 -190.992188 18.382812 -197.171875 17.875 -204.328125 L 74.828125 -204.328125 C 83.003906 -204.328125 91.175781 -203.769531 99.34375 -202.65625 C 107.519531 -201.550781 114.972656 -199.46875 121.703125 -196.40625 C 128.429688 -193.34375 133.835938 -188.785156 137.921875 -182.734375 C 142.003906 -176.691406 144.046875 -168.734375 144.046875 -158.859375 C 144.046875 -146.941406 140.554688 -137.363281 133.578125 -130.125 C 126.597656 -122.894531 115.359375 -118.085938 99.859375 -115.703125 Z M 44.953125 -200.234375 L 44.953125 -118 L 68.953125 -118 C 87.003906 -118 99.691406 -121.570312 107.015625 -128.71875 C 114.335938 -135.875 118 -145.921875 118 -158.859375 C 118 -167.203125 116.378906 -174.054688 113.140625 -179.421875 C 109.910156 -184.785156 105.65625 -189 100.375 -192.0625 C 95.09375 -195.125 89.472656 -197.25 83.515625 -198.4375 C 77.554688 -199.632812 71.769531 -200.234375 66.15625 -200.234375 Z M 68.703125 -4.09375 C 79.597656 -4.09375 89.6875 -5.789062 98.96875 -9.1875 C 108.25 -12.59375 115.78125 -18.171875 121.5625 -25.921875 C 127.351562 -33.671875 130.25 -44.015625 130.25 -56.953125 C 130.25 -68.535156 128.25 -78.070312 124.25 -85.5625 C 120.25 -93.050781 115.179688 -98.835938 109.046875 -102.921875 C 102.921875 -107.015625 96.492188 -109.867188 89.765625 -111.484375 C 83.046875 -113.097656 76.960938 -113.90625 71.515625 -113.90625 L 44.953125 -113.90625 L 44.953125 -4.09375 Z M 68.703125 -4.09375 "/></g></g></g><g fill="#000000" fill-opacity="1"><g transform="translate(277.391006, 219.31459)"><g/></g></g><g fill="#000000" fill-opacity="1"><g transform="translate(370.357168, 219.31459)"><g/></g></g><g fill="#000000" fill-opacity="1"><g transform="translate(463.344103, 219.31459)"><g><path d="M 136.125 -48.53125 C 140.550781 -37.125 144.9375 -28.179688 149.28125 -21.703125 C 153.625 -15.234375 158.601562 -10.632812 164.21875 -7.90625 C 169.84375 -5.1875 176.570312 -3.828125 184.40625 -3.828125 L 184.40625 0 C 170.4375 0 158.726562 -1.398438 149.28125 -4.203125 C 139.832031 -7.015625 132.082031 -11.828125 126.03125 -18.640625 C 119.988281 -25.453125 114.84375 -34.816406 110.59375 -46.734375 C 105.820312 -60.191406 100.753906 -70.320312 95.390625 -77.125 C 90.023438 -83.9375 84.019531 -88.535156 77.375 -90.921875 C 70.738281 -93.304688 62.992188 -94.5 54.140625 -94.5 L 44.953125 -94.5 L 44.953125 -50.3125 C 44.953125 -44.1875 44.992188 -38.65625 45.078125 -33.71875 C 45.160156 -28.78125 45.375 -23.710938 45.71875 -18.515625 C 46.0625 -13.328125 46.488281 -7.15625 47 0 L 17.875 0 C 18.382812 -7.15625 18.8125 -13.328125 19.15625 -18.515625 C 19.5 -23.710938 19.710938 -28.78125 19.796875 -33.71875 C 19.878906 -38.65625 19.921875 -44.1875 19.921875 -50.3125 L 19.921875 -154.015625 C 19.921875 -160.304688 19.878906 -165.878906 19.796875 -170.734375 C 19.710938 -175.585938 19.5 -180.609375 19.15625 -185.796875 C 18.8125 -190.992188 18.382812 -197.171875 17.875 -204.328125 L 65.125 -204.328125 C 76.53125 -204.328125 87.34375 -203.515625 97.5625 -201.890625 C 107.78125 -200.273438 116.847656 -197.46875 124.765625 -193.46875 C 132.679688 -189.46875 138.894531 -183.890625 143.40625 -176.734375 C 147.914062 -169.585938 150.171875 -160.476562 150.171875 -149.40625 C 150.171875 -136.46875 147.191406 -126.207031 141.234375 -118.625 C 135.273438 -111.050781 127.226562 -105.476562 117.09375 -101.90625 C 106.96875 -98.332031 95.601562 -96.035156 83 -95.015625 C 94.070312 -92.972656 104.160156 -88.546875 113.265625 -81.734375 C 122.378906 -74.921875 130 -63.851562 136.125 -48.53125 Z M 44.953125 -98.59375 L 64.875 -98.59375 C 72.363281 -98.59375 79.640625 -99.359375 86.703125 -100.890625 C 93.773438 -102.421875 100.117188 -105.054688 105.734375 -108.796875 C 111.359375 -112.546875 115.828125 -117.695312 119.140625 -124.25 C 122.460938 -130.8125 124.125 -139.195312 124.125 -149.40625 C 124.125 -159.625 122.460938 -168.007812 119.140625 -174.5625 C 115.828125 -181.125 111.359375 -186.273438 105.734375 -190.015625 C 100.117188 -193.765625 93.773438 -196.40625 86.703125 -197.9375 C 79.640625 -199.46875 72.363281 -200.234375 64.875 -200.234375 L 44.953125 -200.234375 Z M 44.953125 -98.59375 "/></g></g></g></g></g></g><g clip-path="url(#2aa898832a)"><g transform="matrix(1, 0, 0, 1, 635, 0.000000000000028422)"><g clip-path="url(#ac633856b9)"><g fill="#000000" fill-opacity="1"><g transform="translate(0.952071, 219.703463)"><g><path d="M 129.492188 8.300781 C 112.757812 8.300781 97.265625 5.59375 83.023438 0.175781 C 68.757812 -5.25 56.324219 -12.871094 45.722656 -22.6875 C 35.089844 -32.527344 26.835938 -44.207031 20.953125 -57.726562 C 15.074219 -71.242188 12.132812 -86.054688 12.132812 -102.164062 C 12.132812 -118.273438 15.074219 -133.085938 20.953125 -146.601562 C 26.835938 -160.125 35.089844 -171.804688 45.722656 -181.640625 C 56.324219 -191.457031 68.757812 -199.078125 83.023438 -204.503906 C 97.265625 -209.921875 112.757812 -212.628906 129.492188 -212.628906 C 146.230469 -212.628906 161.722656 -209.921875 175.964844 -204.503906 C 190.222656 -199.078125 202.695312 -191.460938 213.382812 -181.652344 C 224.105469 -171.808594 232.40625 -160.128906 238.289062 -146.601562 C 244.171875 -133.085938 247.109375 -118.273438 247.109375 -102.164062 C 247.109375 -86.054688 244.171875 -71.242188 238.289062 -57.726562 C 232.40625 -44.203125 224.105469 -32.519531 213.382812 -22.679688 C 202.695312 -12.867188 190.222656 -5.25 175.964844 0.175781 C 161.722656 5.59375 146.230469 8.300781 129.492188 8.300781 Z M 129.492188 1.914062 C 145.449219 1.914062 160.183594 -0.652344 173.695312 -5.792969 C 187.191406 -10.925781 198.980469 -18.125 209.066406 -27.382812 C 219.121094 -36.613281 226.910156 -47.578125 232.433594 -60.273438 C 237.960938 -72.980469 240.726562 -86.941406 240.726562 -102.164062 C 240.726562 -117.386719 237.960938 -131.351562 232.433594 -144.054688 C 226.910156 -156.753906 219.121094 -167.714844 209.066406 -176.945312 C 198.980469 -186.207031 187.191406 -193.402344 173.695312 -198.535156 C 160.183594 -203.675781 145.449219 -206.246094 129.492188 -206.246094 C 113.539062 -206.246094 98.804688 -203.675781 85.292969 -198.535156 C 71.800781 -193.402344 60.058594 -186.210938 50.058594 -176.957031 C 40.085938 -167.722656 32.335938 -156.757812 26.808594 -144.054688 C 21.28125 -131.351562 18.515625 -117.386719 18.515625 -102.164062 C 18.515625 -86.941406 21.28125 -72.980469 26.808594 -60.273438 C 32.335938 -47.570312 40.085938 -36.605469 50.058594 -27.375 C 60.058594 -18.117188 71.800781 -10.925781 85.292969 -5.792969 C 98.804688 -0.652344 113.539062 1.914062 129.492188 1.914062 Z M 129.492188 -2.171875 C 142.589844 -2.171875 154.222656 -4.855469 164.398438 -10.230469 C 174.636719 -15.636719 183.40625 -23.011719 190.703125 -32.359375 C 198.042969 -41.761719 203.617188 -52.453125 207.414062 -64.433594 C 211.234375 -76.464844 213.140625 -89.042969 213.140625 -102.164062 C 213.140625 -115.285156 211.234375 -127.863281 207.414062 -139.894531 C 203.617188 -151.875 198.042969 -162.566406 190.703125 -171.96875 C 183.40625 -181.316406 174.636719 -188.691406 164.398438 -194.097656 C 154.222656 -199.472656 142.589844 -202.160156 129.492188 -202.160156 C 116.566406 -202.160156 104.96875 -199.46875 94.707031 -194.09375 C 84.390625 -188.691406 75.632812 -181.320312 68.421875 -171.984375 C 61.160156 -162.578125 55.628906 -151.878906 51.828125 -139.894531 C 48.011719 -127.863281 46.101562 -115.285156 46.101562 -102.164062 C 46.101562 -89.042969 48.011719 -76.464844 51.828125 -64.433594 C 55.628906 -52.449219 61.160156 -41.753906 68.421875 -32.34375 C 75.632812 -23.007812 84.390625 -15.636719 94.707031 -10.234375 C 104.96875 -4.859375 116.566406 -2.171875 129.492188 -2.171875 Z M 129.492188 4.214844 C 115.519531 4.214844 102.933594 1.285156 91.742188 -4.578125 C 80.605469 -10.414062 71.144531 -18.367188 63.367188 -28.441406 C 55.648438 -38.445312 49.769531 -49.800781 45.742188 -62.503906 C 41.722656 -75.164062 39.714844 -88.382812 39.714844 -102.164062 C 39.714844 -115.945312 41.722656 -129.164062 45.742188 -141.824219 C 49.769531 -154.527344 55.648438 -165.882812 63.367188 -175.886719 C 71.144531 -185.960938 80.605469 -193.914062 91.742188 -199.75 C 102.933594 -205.613281 115.519531 -208.542969 129.492188 -208.542969 C 143.644531 -208.542969 156.273438 -205.609375 167.378906 -199.746094 C 178.425781 -193.914062 187.878906 -185.964844 195.734375 -175.898438 C 203.546875 -165.894531 209.46875 -154.535156 213.503906 -141.824219 C 217.519531 -129.164062 219.527344 -115.945312 219.527344 -102.164062 C 219.527344 -88.382812 217.519531 -75.164062 213.503906 -62.503906 C 209.46875 -49.792969 203.546875 -38.4375 195.734375 -28.429688 C 187.878906 -18.363281 178.425781 -10.414062 167.378906 -4.582031 C 156.273438 1.28125 143.644531 4.214844 129.492188 4.214844 Z M 129.492188 4.214844 "/></g></g></g><g fill="#000000" fill-opacity="1"><g transform="translate(0.952071, 219.703463)"><g><path d="M 129.484375 5.109375 C 113.140625 5.109375 98.03125 2.46875 84.15625 -2.8125 C 70.28125 -8.09375 58.191406 -15.5 47.890625 -25.03125 C 37.585938 -34.5625 29.582031 -45.882812 23.875 -59 C 18.175781 -72.113281 15.328125 -86.5 15.328125 -102.15625 C 15.328125 -117.820312 18.175781 -132.210938 23.875 -145.328125 C 29.582031 -158.441406 37.585938 -169.765625 47.890625 -179.296875 C 58.191406 -188.828125 70.28125 -196.234375 84.15625 -201.515625 C 98.03125 -206.796875 113.140625 -209.4375 129.484375 -209.4375 C 145.835938 -209.4375 160.953125 -206.796875 174.828125 -201.515625 C 188.703125 -196.234375 200.832031 -188.828125 211.21875 -179.296875 C 221.601562 -169.765625 229.644531 -158.441406 235.34375 -145.328125 C 241.050781 -132.210938 243.90625 -117.820312 243.90625 -102.15625 C 243.90625 -86.5 241.050781 -72.113281 235.34375 -59 C 229.644531 -45.882812 221.601562 -34.5625 211.21875 -25.03125 C 200.832031 -15.5 188.703125 -8.09375 174.828125 -2.8125 C 160.953125 2.46875 145.835938 5.109375 129.484375 5.109375 Z M 129.484375 1.015625 C 143.109375 1.015625 155.238281 -1.789062 165.875 -7.40625 C 176.519531 -13.019531 185.628906 -20.679688 193.203125 -30.390625 C 200.785156 -40.097656 206.535156 -51.125 210.453125 -63.46875 C 214.367188 -75.8125 216.328125 -88.707031 216.328125 -102.15625 C 216.328125 -115.613281 214.367188 -128.515625 210.453125 -140.859375 C 206.535156 -153.203125 200.785156 -164.222656 193.203125 -173.921875 C 185.628906 -183.628906 176.519531 -191.289062 165.875 -196.90625 C 155.238281 -202.53125 143.109375 -205.34375 129.484375 -205.34375 C 116.035156 -205.34375 103.945312 -202.53125 93.21875 -196.90625 C 82.488281 -191.289062 73.378906 -183.628906 65.890625 -173.921875 C 58.398438 -164.222656 52.695312 -153.203125 48.78125 -140.859375 C 44.863281 -128.515625 42.90625 -115.613281 42.90625 -102.15625 C 42.90625 -88.707031 44.863281 -75.8125 48.78125 -63.46875 C 52.695312 -51.125 58.398438 -40.097656 65.890625 -30.390625 C 73.378906 -20.679688 82.488281 -13.019531 93.21875 -7.40625 C 103.945312 -1.789062 116.035156 1.015625 129.484375 1.015625 Z M 129.484375 1.015625 "/></g></g></g></g></g></g><g clip-path="url(#74a3be789f)"><g clip-path="url(#9ef7d77aea)"><g transform="matrix(1, 0, 0, 1, 275, 18)"><g clip-path="url(#8a358acf48)"><g clip-path="url(#0589d901e1)"><g clip-path="url(#93dad2525a)"><path fill="#a42d22" d="M 0.0390625 0.140625 L 163.46875 0.140625 L 163.46875 35.566406 L 0.0390625 35.566406 Z M 0.0390625 0.140625 " fill-opacity="1" fill-rule="nonzero"/></g></g></g></g></g></g><g clip-path="url(#19c53be2fd)"><g clip-path="url(#d1e6d0be17)"><g transform="matrix(1, 0, 0, 1, 275, 103)"><g clip-path="url(#caae8fbf61)"><g clip-path="url(#04bd84ed78)"><g clip-path="url(#286a676280)"><path fill="#a42d22" d="M 0.0390625 0.464844 L 163.46875 0.464844 L 163.46875 35.890625 L 0.0390625 35.890625 Z M 0.0390625 0.464844 " fill-opacity="1" fill-rule="nonzero"/></g></g></g></g></g></g><g clip-path="url(#e2a4dea886)"><g clip-path="url(#e9de52ca69)"><g transform="matrix(1, 0, 0, 1, 275, 189)"><g clip-path="url(#35c3178779)"><g clip-path="url(#0cc150b219)"><g clip-path="url(#33c7a55b6d)"><path fill="#a42d22" d="M 0.0390625 0.859375 L 163.476562 0.859375 L 163.476562 34.28125 L 0.0390625 34.28125 Z M 0.0390625 0.859375 " fill-opacity="1" fill-rule="nonzero"/></g></g></g></g></g></g></g></g></svg>