<svg xmlns="http://www.w3.org/2000/svg" xmlns:xlink="http://www.w3.org/1999/xlink" width="1366" zoomAndPan="magnify" viewBox="0 0 1024.5 441.75" height="589" preserveAspectRatio="xMidYMid meet" version="1.0"><defs><g/><clipPath id="a9d9ce3b68"><path d="M 0.246094 3 L 698 3 L 698 308.246094 L 0.246094 308.246094 Z M 0.246094 3 " clip-rule="nonzero"/></clipPath><clipPath id="6e769c0047"><rect x="0" width="698" y="0" height="306"/></clipPath><clipPath id="dc71f96d73"><path d="M 652 0.738281 L 941.714844 0.738281 L 941.714844 306 L 652 306 Z M 652 0.738281 " clip-rule="nonzero"/></clipPath><clipPath id="0f1fcc3a05"><rect x="0" width="290" y="0" height="306"/></clipPath><clipPath id="a20564bdd2"><path d="M 281.636719 18.796875 L 449.691406 18.796875 L 449.691406 55.226562 L 281.636719 55.226562 Z M 281.636719 18.796875 " clip-rule="nonzero"/></clipPath><clipPath id="c2686e3068"><path d="M 431.433594 18.796875 C 441.492188 18.796875 449.648438 26.953125 449.648438 37.011719 C 449.648438 47.070312 441.492188 55.226562 431.433594 55.226562 L 299.851562 55.226562 C 289.792969 55.226562 281.636719 47.070312 281.636719 37.011719 C 281.636719 26.953125 289.792969 18.796875 299.851562 18.796875 Z M 431.433594 18.796875 " clip-rule="nonzero"/></clipPath><clipPath id="1920c69271"><path d="M 0.636719 0.796875 L 168.691406 0.796875 L 168.691406 37.226562 L 0.636719 37.226562 Z M 0.636719 0.796875 " clip-rule="nonzero"/></clipPath><clipPath id="47f9cbaaed"><path d="M 150.433594 0.796875 C 160.492188 0.796875 168.648438 8.953125 168.648438 19.011719 C 168.648438 29.070312 160.492188 37.226562 150.433594 37.226562 L 18.851562 37.226562 C 8.792969 37.226562 0.636719 29.070312 0.636719 19.011719 C 0.636719 8.953125 8.792969 0.796875 18.851562 0.796875 Z M 150.433594 0.796875 " clip-rule="nonzero"/></clipPath><clipPath id="5f251ff595"><rect x="0" width="169" y="0" height="38"/></clipPath><clipPath id="ec2b8a79f0"><path d="M 281.636719 106.535156 L 449.691406 106.535156 L 449.691406 142.960938 L 281.636719 142.960938 Z M 281.636719 106.535156 " clip-rule="nonzero"/></clipPath><clipPath id="ba318ff25e"><path d="M 431.433594 106.535156 C 441.492188 106.535156 449.648438 114.6875 449.648438 124.746094 C 449.648438 134.808594 441.492188 142.960938 431.433594 142.960938 L 299.851562 142.960938 C 289.792969 142.960938 281.636719 134.808594 281.636719 124.746094 C 281.636719 114.6875 289.792969 106.535156 299.851562 106.535156 Z M 431.433594 106.535156 " clip-rule="nonzero"/></clipPath><clipPath id="5d2b31265e"><path d="M 0.636719 0.535156 L 168.691406 0.535156 L 168.691406 36.960938 L 0.636719 36.960938 Z M 0.636719 0.535156 " clip-rule="nonzero"/></clipPath><clipPath id="744b5d8c14"><path d="M 150.433594 0.535156 C 160.492188 0.535156 168.648438 8.6875 168.648438 18.746094 C 168.648438 28.808594 160.492188 36.960938 150.433594 36.960938 L 18.851562 36.960938 C 8.792969 36.960938 0.636719 28.808594 0.636719 18.746094 C 0.636719 8.6875 8.792969 0.535156 18.851562 0.535156 Z M 150.433594 0.535156 " clip-rule="nonzero"/></clipPath><clipPath id="81348166fc"><rect x="0" width="169" y="0" height="37"/></clipPath><clipPath id="5c89ce3891"><path d="M 281.636719 195.378906 L 449.699219 195.378906 L 449.699219 229.742188 L 281.636719 229.742188 Z M 281.636719 195.378906 " clip-rule="nonzero"/></clipPath><clipPath id="c714733978"><path d="M 432.464844 195.378906 C 441.957031 195.378906 449.648438 203.070312 449.648438 212.558594 C 449.648438 222.046875 441.957031 229.742188 432.464844 229.742188 L 298.820312 229.742188 C 289.332031 229.742188 281.636719 222.046875 281.636719 212.558594 C 281.636719 203.070312 289.332031 195.378906 298.820312 195.378906 Z M 432.464844 195.378906 " clip-rule="nonzero"/></clipPath><clipPath id="bc63a26f44"><path d="M 0.636719 0.378906 L 168.699219 0.378906 L 168.699219 34.742188 L 0.636719 34.742188 Z M 0.636719 0.378906 " clip-rule="nonzero"/></clipPath><clipPath id="99359f9244"><path d="M 151.464844 0.378906 C 160.957031 0.378906 168.648438 8.070312 168.648438 17.558594 C 168.648438 27.046875 160.957031 34.742188 151.464844 34.742188 L 17.820312 34.742188 C 8.332031 34.742188 0.636719 27.046875 0.636719 17.558594 C 0.636719 8.070312 8.332031 0.378906 17.820312 0.378906 Z M 151.464844 0.378906 " clip-rule="nonzero"/></clipPath><clipPath id="b26055364c"><rect x="0" width="169" y="0" height="35"/></clipPath><clipPath id="4602ae98de"><rect x="0" width="942" y="0" height="309"/></clipPath></defs><g transform="matrix(1, 0, 0, 1, 60, 106)"><g clip-path="url(#4602ae98de)"><g clip-path="url(#a9d9ce3b68)"><g transform="matrix(1, 0, 0, 1, 0, 3)"><g clip-path="url(#6e769c0047)"><g fill="#ffffff" fill-opacity="1"><g transform="translate(2.354809, 225.749266)"><g><path d="M 18.386719 -213.394531 L 51.84375 -213.394531 L 50.289062 -190.84375 C 49.941406 -185.566406 49.726562 -180.457031 49.640625 -175.519531 C 49.550781 -170.546875 49.507812 -164.832031 49.507812 -158.371094 L 49.507812 -51.742188 C 49.507812 -45.457031 49.550781 -39.785156 49.640625 -34.726562 C 49.726562 -29.699219 49.941406 -24.542969 50.289062 -19.257812 L 51.84375 3.28125 L 14.867188 3.28125 L 16.421875 -19.265625 C 16.769531 -24.546875 16.984375 -29.699219 17.070312 -34.726562 C 17.160156 -39.785156 17.203125 -45.457031 17.203125 -51.742188 L 17.203125 -158.371094 C 17.203125 -164.832031 17.160156 -170.546875 17.070312 -175.519531 C 16.984375 -180.457031 16.769531 -185.570312 16.421875 -190.855469 L 14.867188 -213.394531 Z M 18.386719 -206.828125 L 18.386719 -210.113281 L 21.660156 -210.339844 L 22.972656 -191.285156 C 23.328125 -185.894531 23.546875 -180.675781 23.636719 -175.632812 C 23.726562 -170.625 23.769531 -164.871094 23.769531 -158.371094 L 23.769531 -51.742188 C 23.769531 -45.417969 23.726562 -39.707031 23.636719 -34.613281 C 23.546875 -29.480469 23.328125 -24.214844 22.972656 -18.816406 L 21.660156 0.226562 L 18.386719 0 L 18.386719 -3.28125 L 48.324219 -3.28125 L 48.324219 0 L 45.050781 0.226562 L 43.738281 -18.828125 C 43.382812 -24.21875 43.160156 -29.480469 43.074219 -34.613281 C 42.984375 -39.707031 42.941406 -45.417969 42.941406 -51.742188 L 42.941406 -158.371094 C 42.941406 -164.871094 42.984375 -170.625 43.074219 -175.632812 C 43.164062 -180.675781 43.382812 -185.898438 43.738281 -191.296875 L 45.050781 -210.339844 L 48.324219 -210.113281 L 48.324219 -206.828125 Z M 18.386719 -206.828125 "/></g></g></g><g fill="#ffffff" fill-opacity="1"><g transform="translate(89.548404, 225.749266)"><g><path d="M 103.222656 -122.214844 C 114.246094 -120.410156 124.417969 -117.105469 133.742188 -112.308594 C 143.261719 -107.410156 150.9375 -100.613281 156.765625 -91.914062 C 162.652344 -83.132812 165.59375 -71.929688 165.59375 -58.304688 C 165.59375 -46.511719 163.257812 -36.59375 158.585938 -28.554688 C 153.914062 -20.519531 147.515625 -14.167969 139.390625 -9.496094 C 131.460938 -4.9375 122.367188 -1.660156 112.117188 0.332031 C 102.019531 2.300781 91.433594 3.28125 80.367188 3.28125 L 14.867188 3.28125 L 16.421875 -19.265625 C 16.769531 -24.546875 16.984375 -29.699219 17.070312 -34.726562 C 17.160156 -39.785156 17.203125 -45.457031 17.203125 -51.742188 L 17.203125 -158.371094 C 17.203125 -164.832031 17.160156 -170.546875 17.070312 -175.519531 C 16.984375 -180.457031 16.769531 -185.570312 16.421875 -190.855469 L 14.867188 -213.394531 L 76.953125 -213.394531 C 85.507812 -213.394531 94.058594 -212.816406 102.609375 -211.660156 C 111.332031 -210.476562 119.300781 -208.246094 126.511719 -204.957031 C 133.988281 -201.550781 140 -196.484375 144.546875 -189.757812 C 149.125 -182.988281 151.414062 -174.1875 151.414062 -163.363281 C 151.414062 -150.222656 147.515625 -139.613281 139.722656 -131.535156 C 132.03125 -123.5625 119.855469 -118.296875 103.191406 -115.730469 L 102.691406 -118.976562 Z M 102.160156 -115.738281 L 102.195312 -122.222656 C 117.398438 -124.558594 128.332031 -129.183594 135 -136.09375 C 141.5625 -142.902344 144.847656 -151.988281 144.847656 -163.363281 C 144.847656 -172.847656 142.933594 -180.421875 139.105469 -186.082031 C 135.25 -191.785156 130.144531 -196.085938 123.789062 -198.984375 C 117.164062 -202 109.8125 -204.058594 101.726562 -205.152344 C 93.46875 -206.269531 85.210938 -206.828125 76.953125 -206.828125 L 18.386719 -206.828125 L 18.386719 -210.113281 L 21.660156 -210.339844 L 22.972656 -191.285156 C 23.328125 -185.894531 23.546875 -180.675781 23.636719 -175.632812 C 23.726562 -170.625 23.769531 -164.871094 23.769531 -158.371094 L 23.769531 -51.742188 C 23.769531 -45.417969 23.726562 -39.707031 23.636719 -34.613281 C 23.546875 -29.480469 23.328125 -24.214844 22.972656 -18.816406 L 21.660156 0.226562 L 18.386719 0 L 18.386719 -3.28125 L 80.367188 -3.28125 C 91.011719 -3.28125 101.179688 -4.226562 110.863281 -6.113281 C 120.398438 -7.96875 128.816406 -10.996094 136.121094 -15.191406 C 143.230469 -19.277344 148.824219 -24.832031 152.90625 -31.855469 C 156.988281 -38.871094 159.027344 -47.691406 159.027344 -58.304688 C 159.027344 -70.597656 156.457031 -80.582031 151.3125 -88.257812 C 146.109375 -96.019531 139.253906 -102.089844 130.738281 -106.472656 C 122.027344 -110.953125 112.5 -114.042969 102.160156 -115.738281 Z M 49.507812 -205.910156 L 49.507812 -121.339844 L 46.226562 -121.339844 L 46.226562 -124.625 L 70.914062 -124.625 C 88.582031 -124.625 100.863281 -127.988281 107.753906 -134.71875 C 114.621094 -141.429688 118.058594 -150.976562 118.058594 -163.363281 C 118.058594 -171.332031 116.550781 -177.816406 113.539062 -182.808594 C 110.5 -187.84375 106.511719 -191.796875 101.570312 -194.667969 C 96.457031 -197.636719 91.011719 -199.699219 85.238281 -200.851562 C 79.324219 -202.035156 73.585938 -202.628906 68.023438 -202.628906 L 46.226562 -202.628906 L 46.226562 -205.910156 Z M 42.941406 -209.195312 L 68.023438 -209.195312 C 74.019531 -209.195312 80.1875 -208.558594 86.527344 -207.292969 C 93.011719 -205.996094 99.125 -203.679688 104.867188 -200.34375 C 110.78125 -196.910156 115.542969 -192.195312 119.160156 -186.199219 C 122.800781 -180.164062 124.625 -172.550781 124.625 -163.363281 C 124.625 -149.132812 120.527344 -138.019531 112.339844 -130.023438 C 104.175781 -122.046875 90.363281 -118.058594 70.914062 -118.058594 L 42.941406 -118.058594 Z M 70.652344 -7.484375 C 81.46875 -7.484375 91.464844 -9.167969 100.640625 -12.539062 C 109.574219 -15.816406 116.824219 -21.175781 122.386719 -28.625 C 127.90625 -36.007812 130.664062 -45.988281 130.664062 -58.570312 C 130.664062 -69.925781 128.734375 -79.21875 124.878906 -86.4375 C 121.023438 -93.65625 116.171875 -99.214844 110.328125 -103.113281 C 104.347656 -107.097656 98.089844 -109.878906 91.550781 -111.449219 C 84.886719 -113.054688 78.882812 -113.855469 73.539062 -113.855469 L 46.226562 -113.855469 L 46.226562 -117.136719 L 49.507812 -117.136719 L 49.507812 -4.203125 L 46.226562 -4.203125 L 46.226562 -7.484375 Z M 70.652344 -0.917969 L 42.941406 -0.917969 L 42.941406 -120.421875 L 73.539062 -120.421875 C 79.402344 -120.421875 85.917969 -119.558594 93.085938 -117.835938 C 100.378906 -116.082031 107.339844 -112.996094 113.96875 -108.574219 C 120.730469 -104.070312 126.296875 -97.71875 130.671875 -89.53125 C 135.042969 -81.34375 137.230469 -71.023438 137.230469 -58.570312 C 137.230469 -44.535156 134.035156 -33.242188 127.648438 -24.691406 C 121.304688 -16.207031 113.058594 -10.097656 102.90625 -6.371094 C 92.996094 -2.738281 82.246094 -0.917969 70.652344 -0.917969 Z M 70.652344 -0.917969 "/></g></g></g><g fill="#ffffff" fill-opacity="1"><g transform="translate(285.47477, 225.749266)"><g/></g></g><g fill="#ffffff" fill-opacity="1"><g transform="translate(381.072453, 225.749266)"><g/></g></g><g fill="#ffffff" fill-opacity="1"><g transform="translate(476.691496, 225.749266)"><g><path d="M 143.046875 -51.089844 C 147.511719 -39.585938 151.910156 -30.605469 156.238281 -24.152344 C 160.375 -17.992188 165.066406 -13.640625 170.3125 -11.097656 C 175.636719 -8.515625 182.074219 -7.222656 189.628906 -7.222656 L 192.910156 -7.222656 L 192.910156 3.28125 L 189.628906 3.28125 C 174.949219 3.28125 162.601562 1.792969 152.578125 -1.1875 C 142.261719 -4.253906 133.789062 -9.523438 127.15625 -16.992188 C 120.660156 -24.316406 115.152344 -34.304688 110.632812 -46.960938 C 105.847656 -60.457031 100.808594 -70.566406 95.515625 -77.285156 C 90.390625 -83.796875 84.707031 -88.171875 78.472656 -90.410156 C 72 -92.734375 64.402344 -93.894531 55.679688 -93.894531 L 46.226562 -93.894531 L 46.226562 -97.175781 L 49.507812 -97.175781 L 49.507812 -51.742188 C 49.507812 -45.457031 49.550781 -39.785156 49.640625 -34.726562 C 49.726562 -29.699219 49.941406 -24.542969 50.289062 -19.257812 L 51.84375 3.28125 L 14.867188 3.28125 L 16.421875 -19.265625 C 16.769531 -24.546875 16.984375 -29.699219 17.070312 -34.726562 C 17.160156 -39.785156 17.203125 -45.457031 17.203125 -51.742188 L 17.203125 -158.371094 C 17.203125 -164.832031 17.160156 -170.546875 17.070312 -175.519531 C 16.984375 -180.457031 16.769531 -185.570312 16.421875 -190.855469 L 14.867188 -213.394531 L 66.972656 -213.394531 C 78.878906 -213.394531 90.167969 -212.550781 100.84375 -210.859375 C 111.6875 -209.144531 121.332031 -206.148438 129.78125 -201.882812 C 138.464844 -197.492188 145.285156 -191.367188 150.25 -183.5 C 155.226562 -175.609375 157.714844 -165.660156 157.714844 -153.644531 C 157.714844 -139.582031 154.417969 -128.355469 147.820312 -119.96875 C 141.300781 -111.675781 132.53125 -105.585938 121.515625 -101.699219 C 110.828125 -97.925781 98.863281 -95.503906 85.625 -94.429688 L 85.359375 -97.703125 L 85.953125 -100.929688 C 97.839844 -98.738281 108.667969 -93.984375 118.449219 -86.675781 C 128.308594 -79.300781 136.503906 -67.449219 143.035156 -51.121094 Z M 136.941406 -48.683594 C 130.863281 -63.871094 123.390625 -74.78125 114.515625 -81.414062 C 105.558594 -88.113281 95.640625 -92.464844 84.761719 -94.472656 L 85.09375 -100.976562 C 97.765625 -102.003906 109.179688 -104.308594 119.328125 -107.890625 C 129.148438 -111.355469 136.925781 -116.734375 142.660156 -124.027344 C 148.320312 -131.222656 151.148438 -141.09375 151.148438 -153.644531 C 151.148438 -164.394531 149 -173.175781 144.695312 -179.996094 C 140.378906 -186.835938 134.421875 -192.179688 126.820312 -196.019531 C 118.984375 -199.980469 109.980469 -202.765625 99.816406 -204.375 C 89.480469 -206.011719 78.53125 -206.828125 66.972656 -206.828125 L 18.386719 -206.828125 L 18.386719 -210.113281 L 21.660156 -210.339844 L 22.972656 -191.285156 C 23.328125 -185.894531 23.546875 -180.675781 23.636719 -175.632812 C 23.726562 -170.625 23.769531 -164.871094 23.769531 -158.371094 L 23.769531 -51.742188 C 23.769531 -45.417969 23.726562 -39.707031 23.636719 -34.613281 C 23.546875 -29.480469 23.328125 -24.214844 22.972656 -18.816406 L 21.660156 0.226562 L 18.386719 0 L 18.386719 -3.28125 L 48.324219 -3.28125 L 48.324219 0 L 45.050781 0.226562 L 43.738281 -18.828125 C 43.382812 -24.21875 43.160156 -29.480469 43.074219 -34.613281 C 42.984375 -39.707031 42.941406 -45.417969 42.941406 -51.742188 L 42.941406 -100.460938 L 55.679688 -100.460938 C 65.164062 -100.460938 73.503906 -99.171875 80.691406 -96.589844 C 88.109375 -93.925781 94.773438 -88.847656 100.675781 -81.347656 C 106.414062 -74.0625 111.792969 -63.335938 116.816406 -49.167969 C 121.050781 -37.308594 126.132812 -28.039062 132.070312 -21.351562 C 137.871094 -14.816406 145.332031 -10.191406 154.449219 -7.480469 C 163.863281 -4.683594 175.585938 -3.28125 189.628906 -3.28125 L 189.628906 0 L 186.34375 0 L 186.34375 -3.941406 L 189.628906 -3.941406 L 189.628906 -0.65625 C 181.070312 -0.65625 173.675781 -2.167969 167.445312 -5.1875 C 161.136719 -8.246094 155.582031 -13.351562 150.789062 -20.496094 C 146.1875 -27.351562 141.566406 -36.757812 136.925781 -48.714844 Z M 46.226562 -104.664062 L 66.710938 -104.664062 C 74.179688 -104.664062 81.433594 -105.425781 88.472656 -106.953125 C 95.332031 -108.441406 101.480469 -110.996094 106.914062 -114.617188 C 112.210938 -118.148438 116.4375 -123.03125 119.59375 -129.257812 C 122.773438 -135.535156 124.359375 -143.664062 124.359375 -153.644531 C 124.359375 -163.628906 122.773438 -171.757812 119.59375 -178.03125 C 116.4375 -184.261719 112.210938 -189.140625 106.914062 -192.671875 C 101.480469 -196.296875 95.332031 -198.851562 88.472656 -200.339844 C 81.433594 -201.863281 74.179688 -202.628906 66.710938 -202.628906 L 46.226562 -202.628906 L 46.226562 -205.910156 L 49.507812 -205.910156 L 49.507812 -101.378906 L 46.226562 -101.378906 Z M 42.941406 -98.097656 L 42.941406 -209.195312 L 66.710938 -209.195312 C 74.648438 -209.195312 82.367188 -208.382812 89.863281 -206.753906 C 97.535156 -205.089844 104.429688 -202.21875 110.554688 -198.136719 C 116.8125 -193.964844 121.777344 -188.253906 125.449219 -181 C 129.101562 -173.792969 130.925781 -164.671875 130.925781 -153.644531 C 130.925781 -142.617188 129.101562 -133.5 125.449219 -126.292969 C 121.777344 -119.039062 116.8125 -113.324219 110.554688 -109.152344 C 104.429688 -105.070312 97.535156 -102.199219 89.863281 -100.535156 C 82.367188 -98.910156 74.648438 -98.097656 66.710938 -98.097656 Z M 42.941406 -98.097656 "/></g></g></g><g fill="#ffffff" fill-opacity="1"><g transform="translate(2.354809, 225.749266)"><g><path d="M 18.390625 -210.109375 L 48.328125 -210.109375 C 47.796875 -202.753906 47.351562 -196.40625 47 -191.0625 C 46.65625 -185.726562 46.4375 -180.566406 46.34375 -175.578125 C 46.257812 -170.585938 46.21875 -164.851562 46.21875 -158.375 L 46.21875 -51.734375 C 46.21875 -45.429688 46.257812 -39.738281 46.34375 -34.65625 C 46.4375 -29.582031 46.65625 -24.375 47 -19.03125 C 47.351562 -13.695312 47.796875 -7.351562 48.328125 0 L 18.390625 0 C 18.910156 -7.351562 19.34375 -13.695312 19.6875 -19.03125 C 20.039062 -24.375 20.257812 -29.582031 20.34375 -34.65625 C 20.4375 -39.738281 20.484375 -45.429688 20.484375 -51.734375 L 20.484375 -158.375 C 20.484375 -164.851562 20.4375 -170.585938 20.34375 -175.578125 C 20.257812 -180.566406 20.039062 -185.726562 19.6875 -191.0625 C 19.34375 -196.40625 18.910156 -202.753906 18.390625 -210.109375 Z M 18.390625 -210.109375 "/></g></g></g><g fill="#ffffff" fill-opacity="1"><g transform="translate(89.548404, 225.749266)"><g><path d="M 102.6875 -118.96875 C 113.375 -117.21875 123.222656 -114.023438 132.234375 -109.390625 C 141.253906 -104.753906 148.519531 -98.316406 154.03125 -90.078125 C 159.550781 -81.847656 162.3125 -71.257812 162.3125 -58.3125 C 162.3125 -47.101562 160.125 -37.734375 155.75 -30.203125 C 151.375 -22.671875 145.375 -16.71875 137.75 -12.34375 C 130.132812 -7.96875 121.378906 -4.816406 111.484375 -2.890625 C 101.597656 -0.960938 91.226562 0 80.375 0 L 18.390625 0 C 18.910156 -7.351562 19.34375 -13.695312 19.6875 -19.03125 C 20.039062 -24.375 20.257812 -29.582031 20.34375 -34.65625 C 20.4375 -39.738281 20.484375 -45.429688 20.484375 -51.734375 L 20.484375 -158.375 C 20.484375 -164.851562 20.4375 -170.585938 20.34375 -175.578125 C 20.257812 -180.566406 20.039062 -185.726562 19.6875 -191.0625 C 19.34375 -196.40625 18.910156 -202.753906 18.390625 -210.109375 L 76.953125 -210.109375 C 85.359375 -210.109375 93.765625 -209.539062 102.171875 -208.40625 C 110.578125 -207.269531 118.234375 -205.125 125.140625 -201.96875 C 132.054688 -198.820312 137.613281 -194.140625 141.8125 -187.921875 C 146.019531 -181.703125 148.125 -173.515625 148.125 -163.359375 C 148.125 -151.109375 144.535156 -141.257812 137.359375 -133.8125 C 130.179688 -126.375 118.625 -121.425781 102.6875 -118.96875 Z M 46.21875 -205.90625 L 46.21875 -121.34375 L 70.90625 -121.34375 C 89.46875 -121.34375 102.515625 -125.019531 110.046875 -132.375 C 117.578125 -139.726562 121.34375 -150.054688 121.34375 -163.359375 C 121.34375 -171.941406 119.675781 -178.988281 116.34375 -184.5 C 113.019531 -190.019531 108.644531 -194.351562 103.21875 -197.5 C 97.789062 -200.65625 92.007812 -202.84375 85.875 -204.0625 C 79.75 -205.289062 73.800781 -205.90625 68.03125 -205.90625 Z M 70.65625 -4.203125 C 81.851562 -4.203125 92.222656 -5.953125 101.765625 -9.453125 C 111.316406 -12.953125 119.066406 -18.6875 125.015625 -26.65625 C 130.972656 -34.625 133.953125 -45.257812 133.953125 -58.5625 C 133.953125 -70.46875 131.894531 -80.273438 127.78125 -87.984375 C 123.664062 -95.691406 118.453125 -101.644531 112.140625 -105.84375 C 105.835938 -110.039062 99.226562 -112.972656 92.3125 -114.640625 C 85.394531 -116.304688 79.140625 -117.140625 73.546875 -117.140625 L 46.21875 -117.140625 L 46.21875 -4.203125 Z M 70.65625 -4.203125 "/></g></g></g><g fill="#ffffff" fill-opacity="1"><g transform="translate(285.47477, 225.749266)"><g/></g></g><g fill="#ffffff" fill-opacity="1"><g transform="translate(381.072453, 225.749266)"><g/></g></g><g fill="#ffffff" fill-opacity="1"><g transform="translate(476.691496, 225.749266)"><g><path d="M 139.984375 -49.90625 C 144.535156 -38.175781 149.039062 -28.984375 153.5 -22.328125 C 157.96875 -15.671875 163.09375 -10.941406 168.875 -8.140625 C 174.65625 -5.335938 181.570312 -3.9375 189.625 -3.9375 L 189.625 0 C 175.269531 0 163.234375 -1.441406 153.515625 -4.328125 C 143.796875 -7.222656 135.828125 -12.171875 129.609375 -19.171875 C 123.398438 -26.171875 118.101562 -35.800781 113.71875 -48.0625 C 108.820312 -61.894531 103.613281 -72.3125 98.09375 -79.3125 C 92.582031 -86.320312 86.410156 -91.050781 79.578125 -93.5 C 72.753906 -95.945312 64.789062 -97.171875 55.6875 -97.171875 L 46.21875 -97.171875 L 46.21875 -51.734375 C 46.21875 -45.429688 46.257812 -39.738281 46.34375 -34.65625 C 46.4375 -29.582031 46.65625 -24.375 47 -19.03125 C 47.351562 -13.695312 47.796875 -7.351562 48.328125 0 L 18.390625 0 C 18.910156 -7.351562 19.34375 -13.695312 19.6875 -19.03125 C 20.039062 -24.375 20.257812 -29.582031 20.34375 -34.65625 C 20.4375 -39.738281 20.484375 -45.429688 20.484375 -51.734375 L 20.484375 -158.375 C 20.484375 -164.851562 20.4375 -170.585938 20.34375 -175.578125 C 20.257812 -180.566406 20.039062 -185.726562 19.6875 -191.0625 C 19.34375 -196.40625 18.910156 -202.753906 18.390625 -210.109375 L 66.96875 -210.109375 C 78.695312 -210.109375 89.816406 -209.273438 100.328125 -207.609375 C 110.835938 -205.953125 120.160156 -203.066406 128.296875 -198.953125 C 136.441406 -194.835938 142.832031 -189.101562 147.46875 -181.75 C 152.113281 -174.394531 154.4375 -165.023438 154.4375 -153.640625 C 154.4375 -140.335938 151.367188 -129.789062 145.234375 -122 C 139.109375 -114.207031 130.835938 -108.472656 120.421875 -104.796875 C 110.003906 -101.117188 98.316406 -98.753906 85.359375 -97.703125 C 96.742188 -95.597656 107.117188 -91.046875 116.484375 -84.046875 C 125.847656 -77.046875 133.679688 -65.664062 139.984375 -49.90625 Z M 46.21875 -101.375 L 66.703125 -101.375 C 74.410156 -101.375 81.894531 -102.160156 89.15625 -103.734375 C 96.425781 -105.316406 102.953125 -108.03125 108.734375 -111.875 C 114.515625 -115.726562 119.109375 -121.023438 122.515625 -127.765625 C 125.929688 -134.515625 127.640625 -143.140625 127.640625 -153.640625 C 127.640625 -164.148438 125.929688 -172.773438 122.515625 -179.515625 C 119.109375 -186.253906 114.515625 -191.550781 108.734375 -195.40625 C 102.953125 -199.257812 96.425781 -201.972656 89.15625 -203.546875 C 81.894531 -205.117188 74.410156 -205.90625 66.703125 -205.90625 L 46.21875 -205.90625 Z M 46.21875 -101.375 "/></g></g></g></g></g></g><g clip-path="url(#dc71f96d73)"><g transform="matrix(1, 0, 0, 1, 652, 0.000000000000014211)"><g clip-path="url(#0f1fcc3a05)"><g fill="#ffffff" fill-opacity="1"><g transform="translate(0.767663, 226.064219)"><g><path d="M 133.160156 8.535156 C 115.949219 8.535156 100.019531 5.75 85.375 0.179688 C 70.707031 -5.398438 57.921875 -13.234375 47.015625 -23.328125 C 36.085938 -33.445312 27.59375 -45.457031 21.546875 -59.359375 C 15.5 -73.261719 12.476562 -88.492188 12.476562 -105.054688 C 12.476562 -121.621094 15.5 -136.851562 21.546875 -150.753906 C 27.59375 -164.65625 36.085938 -176.667969 47.015625 -186.785156 C 57.921875 -196.878906 70.707031 -204.714844 85.375 -210.292969 C 100.019531 -215.863281 115.949219 -218.648438 133.160156 -218.648438 C 150.371094 -218.648438 166.300781 -215.863281 180.945312 -210.292969 C 195.609375 -204.714844 208.433594 -196.882812 219.425781 -186.792969 C 230.445312 -176.671875 238.984375 -164.660156 245.035156 -150.753906 C 251.082031 -136.851562 254.105469 -121.621094 254.105469 -105.054688 C 254.105469 -88.492188 251.082031 -73.261719 245.035156 -59.359375 C 238.984375 -45.453125 230.445312 -33.4375 219.425781 -23.320312 C 208.433594 -13.230469 195.609375 -5.398438 180.945312 0.179688 C 166.300781 5.75 150.371094 8.535156 133.160156 8.535156 Z M 133.160156 1.96875 C 149.566406 1.96875 164.714844 -0.671875 178.609375 -5.957031 C 192.488281 -11.234375 204.613281 -18.636719 214.984375 -28.15625 C 225.324219 -37.648438 233.332031 -48.921875 239.011719 -61.980469 C 244.699219 -75.042969 247.539062 -89.402344 247.539062 -105.054688 C 247.539062 -120.710938 244.699219 -135.070312 239.011719 -148.132812 C 233.332031 -161.191406 225.324219 -172.464844 214.984375 -181.957031 C 204.613281 -191.476562 192.488281 -198.875 178.609375 -204.15625 C 164.714844 -209.441406 149.566406 -212.082031 133.160156 -212.082031 C 116.753906 -212.082031 101.601562 -209.441406 87.707031 -204.15625 C 73.835938 -198.878906 61.757812 -191.480469 51.476562 -181.964844 C 41.21875 -172.472656 33.25 -161.195312 27.566406 -148.132812 C 21.882812 -135.070312 19.042969 -120.710938 19.042969 -105.054688 C 19.042969 -89.402344 21.882812 -75.042969 27.566406 -61.980469 C 33.25 -48.917969 41.21875 -37.640625 51.476562 -28.148438 C 61.757812 -18.632812 73.835938 -11.234375 87.707031 -5.957031 C 101.601562 -0.671875 116.753906 1.96875 133.160156 1.96875 Z M 133.160156 -2.234375 C 146.625 -2.234375 158.589844 -4.996094 169.050781 -10.519531 C 179.582031 -16.078125 188.597656 -23.664062 196.101562 -33.273438 C 203.648438 -42.945312 209.378906 -53.941406 213.285156 -66.257812 C 217.210938 -78.628906 219.175781 -91.5625 219.175781 -105.054688 C 219.175781 -118.550781 217.210938 -131.484375 213.285156 -143.855469 C 209.378906 -156.171875 203.648438 -167.167969 196.101562 -176.839844 C 188.597656 -186.449219 179.582031 -194.035156 169.050781 -199.59375 C 158.589844 -205.117188 146.625 -207.878906 133.160156 -207.878906 C 119.863281 -207.878906 107.941406 -205.117188 97.386719 -199.589844 C 86.78125 -194.03125 77.773438 -186.453125 70.359375 -176.851562 C 62.894531 -167.179688 57.203125 -156.179688 53.292969 -143.855469 C 49.367188 -131.484375 47.40625 -118.550781 47.40625 -105.054688 C 47.40625 -91.5625 49.367188 -78.628906 53.292969 -66.257812 C 57.203125 -53.933594 62.894531 -42.933594 70.359375 -33.261719 C 77.773438 -23.660156 86.78125 -16.082031 97.386719 -10.523438 C 107.941406 -4.996094 119.863281 -2.234375 133.160156 -2.234375 Z M 133.160156 4.332031 C 118.789062 4.332031 105.847656 1.320312 94.339844 -4.707031 C 82.886719 -10.707031 73.160156 -18.890625 65.164062 -29.25 C 57.222656 -39.535156 51.179688 -51.210938 47.035156 -64.273438 C 42.90625 -77.289062 40.839844 -90.886719 40.839844 -105.054688 C 40.839844 -119.226562 42.90625 -132.820312 47.035156 -145.839844 C 51.179688 -158.902344 57.222656 -170.578125 65.164062 -180.863281 C 73.160156 -191.222656 82.886719 -199.402344 94.339844 -205.40625 C 105.847656 -211.433594 118.789062 -214.445312 133.160156 -214.445312 C 147.710938 -214.445312 160.695312 -211.429688 172.117188 -205.398438 C 183.476562 -199.402344 193.195312 -191.230469 201.277344 -180.878906 C 209.308594 -170.589844 215.398438 -158.910156 219.546875 -145.839844 C 223.675781 -132.820312 225.738281 -119.226562 225.738281 -105.054688 C 225.738281 -90.886719 223.675781 -77.289062 219.546875 -64.273438 C 215.398438 -51.203125 209.308594 -39.523438 201.277344 -29.234375 C 193.195312 -18.882812 183.476562 -10.710938 172.117188 -4.714844 C 160.695312 1.316406 147.710938 4.332031 133.160156 4.332031 Z M 133.160156 4.332031 "/></g></g></g><g fill="#ffffff" fill-opacity="1"><g transform="translate(0.767663, 226.064219)"><g><path d="M 133.15625 5.25 C 116.351562 5.25 100.816406 2.535156 86.546875 -2.890625 C 72.273438 -8.316406 59.84375 -15.929688 49.25 -25.734375 C 38.65625 -35.546875 30.425781 -47.191406 24.5625 -60.671875 C 18.695312 -74.148438 15.765625 -88.945312 15.765625 -105.0625 C 15.765625 -121.164062 18.695312 -135.957031 24.5625 -149.4375 C 30.425781 -162.925781 38.65625 -174.570312 49.25 -184.375 C 59.84375 -194.175781 72.273438 -201.789062 86.546875 -207.21875 C 100.816406 -212.644531 116.351562 -215.359375 133.15625 -215.359375 C 149.96875 -215.359375 165.507812 -212.644531 179.78125 -207.21875 C 194.050781 -201.789062 206.523438 -194.175781 217.203125 -184.375 C 227.878906 -174.570312 236.148438 -162.925781 242.015625 -149.4375 C 247.890625 -135.957031 250.828125 -121.164062 250.828125 -105.0625 C 250.828125 -88.945312 247.890625 -74.148438 242.015625 -60.671875 C 236.148438 -47.191406 227.878906 -35.546875 217.203125 -25.734375 C 206.523438 -15.929688 194.050781 -8.316406 179.78125 -2.890625 C 165.507812 2.535156 149.96875 5.25 133.15625 5.25 Z M 133.15625 1.046875 C 147.164062 1.046875 159.640625 -1.835938 170.578125 -7.609375 C 181.523438 -13.390625 190.894531 -21.269531 198.6875 -31.25 C 206.476562 -41.226562 212.382812 -52.566406 216.40625 -65.265625 C 220.4375 -77.960938 222.453125 -91.226562 222.453125 -105.0625 C 222.453125 -118.894531 220.4375 -132.15625 216.40625 -144.84375 C 212.382812 -157.539062 206.476562 -168.878906 198.6875 -178.859375 C 190.894531 -188.835938 181.523438 -196.710938 170.578125 -202.484375 C 159.640625 -208.265625 147.164062 -211.15625 133.15625 -211.15625 C 119.320312 -211.15625 106.890625 -208.265625 95.859375 -202.484375 C 84.828125 -196.710938 75.457031 -188.835938 67.75 -178.859375 C 60.050781 -168.878906 54.1875 -157.539062 50.15625 -144.84375 C 46.132812 -132.15625 44.125 -118.894531 44.125 -105.0625 C 44.125 -91.226562 46.132812 -77.960938 50.15625 -65.265625 C 54.1875 -52.566406 60.050781 -41.226562 67.75 -31.25 C 75.457031 -21.269531 84.828125 -13.390625 95.859375 -7.609375 C 106.890625 -1.835938 119.320312 1.046875 133.15625 1.046875 Z M 133.15625 1.046875 "/></g></g></g></g></g></g><g clip-path="url(#a20564bdd2)"><g clip-path="url(#c2686e3068)"><g transform="matrix(1, 0, 0, 1, 281, 18)"><g clip-path="url(#5f251ff595)"><g clip-path="url(#1920c69271)"><g clip-path="url(#47f9cbaaed)"><path fill="#a42d22" d="M 0.636719 0.796875 L 168.691406 0.796875 L 168.691406 37.226562 L 0.636719 37.226562 Z M 0.636719 0.796875 " fill-opacity="1" fill-rule="nonzero"/></g></g></g></g></g></g><g clip-path="url(#ec2b8a79f0)"><g clip-path="url(#ba318ff25e)"><g transform="matrix(1, 0, 0, 1, 281, 106)"><g clip-path="url(#81348166fc)"><g clip-path="url(#5d2b31265e)"><g clip-path="url(#744b5d8c14)"><path fill="#a42d22" d="M 0.636719 0.535156 L 168.691406 0.535156 L 168.691406 36.960938 L 0.636719 36.960938 Z M 0.636719 0.535156 " fill-opacity="1" fill-rule="nonzero"/></g></g></g></g></g></g><g clip-path="url(#5c89ce3891)"><g clip-path="url(#c714733978)"><g transform="matrix(1, 0, 0, 1, 281, 195)"><g clip-path="url(#b26055364c)"><g clip-path="url(#bc63a26f44)"><g clip-path="url(#99359f9244)"><path fill="#a42d22" d="M 0.636719 0.378906 L 168.699219 0.378906 L 168.699219 34.742188 L 0.636719 34.742188 Z M 0.636719 0.378906 " fill-opacity="1" fill-rule="nonzero"/></g></g></g></g></g></g></g></g></svg>